<svg xmlns="http://www.w3.org/2000/svg" viewBox="0 0 1346 436"><defs><style>.cls-1{fill:#1f1f1f;}.cls-2{fill:#ea4335;}.cls-3{fill:#1a73e8;}.cls-4{fill:#f7b801;}.cls-5{fill:#ebedef;}</style></defs><g id="Capa_2" data-name="Capa 2"><rect class="cls-1" width="1346" height="436"/><polygon class="cls-2" points="190.25 144.32 221.7 144.32 265.25 208.32 222.25 273.32 190.25 273.32 232.59 208.82 190.25 144.32"/><polygon class="cls-3" points="352.25 144.82 383.7 144.82 427.25 208.82 384.25 273.82 352.25 273.82 394.59 209.32 352.25 144.82"/><polygon class="cls-4" points="300.34 144.32 333.75 144.32 303.4 273.32 269.36 273.32 300.34 144.32"/><path class="cls-5" d="M560.09,172.45a51.19,51.19,0,0,0-16.72-10.9,54.54,54.54,0,0,0-20.77-3.91H483.42V260.75H522.9a54.14,54.14,0,0,0,20.62-3.9,50.09,50.09,0,0,0,27.69-27.33,54.07,54.07,0,0,0,0-40.72A50,50,0,0,0,560.09,172.45ZM553.31,228a32.1,32.1,0,0,1-12.52,12.74,37.06,37.06,0,0,1-18.63,4.57h-21.8V173.11h21.8a36.72,36.72,0,0,1,18.49,4.57,32.8,32.8,0,0,1,12.59,12.66,37.53,37.53,0,0,1,4.57,18.71A38.62,38.62,0,0,1,553.31,228Z"/><path class="cls-5" d="M639.23,193.44a36.94,36.94,0,0,0-18.85-4.86,36.23,36.23,0,0,0-18.71,4.93,37.33,37.33,0,0,0-13.33,13.18,35.46,35.46,0,0,0-4.93,18.56A36.23,36.23,0,0,0,588.34,244a36.87,36.87,0,0,0,13.33,13.33,38.23,38.23,0,0,0,37.56,0A36.87,36.87,0,0,0,652.56,244a36.23,36.23,0,0,0,4.94-18.71,35.84,35.84,0,0,0-4.94-18.63A36.47,36.47,0,0,0,639.23,193.44Zm-1,42.86a18.9,18.9,0,0,1-7.21,7.59,20.79,20.79,0,0,1-10.68,2.72,20.45,20.45,0,0,1-10.53-2.72,18.79,18.79,0,0,1-7.22-7.59,23.19,23.19,0,0,1-2.58-11.05,22.37,22.37,0,0,1,2.58-10.9,19.05,19.05,0,0,1,7.22-7.44,21.88,21.88,0,0,1,21.13,0,19.91,19.91,0,0,1,7.22,7.44,21.86,21.86,0,0,1,2.65,10.9A23.19,23.19,0,0,1,638.27,236.3Z"/><path class="cls-5" d="M719.79,192.63a25.26,25.26,0,0,0-14.15-4,27.68,27.68,0,0,0-14.06,3.6,26.11,26.11,0,0,0-7,5.84v-8h-16.2v70.7h16.2V220a17,17,0,0,1,2.06-8.4,14.76,14.76,0,0,1,5.75-5.74,16.91,16.91,0,0,1,8.39-2.06,15.54,15.54,0,0,1,11.57,4.56A15.94,15.94,0,0,1,716.84,220v40.8H733V216.42a27.35,27.35,0,0,0-3.53-13.34A29.24,29.24,0,0,0,719.79,192.63Z"/><path class="cls-5" d="M826.84,172.45a51.19,51.19,0,0,0-16.72-10.9,54.54,54.54,0,0,0-20.77-3.91H750.17V260.75h39.48a54.17,54.17,0,0,0,20.62-3.9A50.09,50.09,0,0,0,838,229.52a54.07,54.07,0,0,0,0-40.72A50,50,0,0,0,826.84,172.45ZM820.06,228a32.17,32.17,0,0,1-12.52,12.74,37.06,37.06,0,0,1-18.63,4.57h-21.8V173.11h21.8a36.72,36.72,0,0,1,18.49,4.57A32.8,32.8,0,0,1,820,190.34a37.53,37.53,0,0,1,4.57,18.71A38.62,38.62,0,0,1,820.06,228Z"/><rect class="cls-5" x="854.99" y="190.05" width="16.2" height="70.7"/><path class="cls-5" d="M863.09,157.64a9.17,9.17,0,0,0-6.85,2.8,10.15,10.15,0,0,0,0,13.85,9.86,9.86,0,0,0,13.77,0,10.37,10.37,0,0,0,0-13.85A9.13,9.13,0,0,0,863.09,157.64Z"/><path class="cls-5" d="M937.15,197.49a25.82,25.82,0,0,0-7.07-5.53,30.91,30.91,0,0,0-14.73-3.38,31.91,31.91,0,0,0-17,4.64,33.13,33.13,0,0,0-11.93,12.59,36.81,36.81,0,0,0-4.34,18,37.68,37.68,0,0,0,4.34,18.12,32.91,32.91,0,0,0,11.93,12.74,32,32,0,0,0,17,4.64,30.44,30.44,0,0,0,14.58-3.39,25.49,25.49,0,0,0,7.22-5.7v7.61q0,8.55-5.6,13.48t-15.17,4.94a29.81,29.81,0,0,1-13.11-2.65,28.37,28.37,0,0,1-9.72-8l-10.61,10.61a34.59,34.59,0,0,0,13.55,11.41,44.63,44.63,0,0,0,19.59,4.05,42.31,42.31,0,0,0,19.45-4.27,32.32,32.32,0,0,0,13.1-11.86,32.85,32.85,0,0,0,4.72-17.75V190.05h-16.2Zm-8.25,44a20.58,20.58,0,0,1-10.31,2.5,21,21,0,0,1-10.39-2.5,17.64,17.64,0,0,1-7-7.08,23.18,23.18,0,0,1,0-21,17.76,17.76,0,0,1,7-7,21,21,0,0,1,10.39-2.51,20.58,20.58,0,0,1,10.31,2.51,17.42,17.42,0,0,1,6.85,7,24,24,0,0,1,0,21.06A17.42,17.42,0,0,1,928.9,241.46Z"/><rect class="cls-5" x="968.62" y="190.05" width="16.2" height="70.7"/><path class="cls-5" d="M976.72,157.64a9.15,9.15,0,0,0-6.84,2.8,10.15,10.15,0,0,0,0,13.85,9.86,9.86,0,0,0,13.77,0,10.37,10.37,0,0,0,0-13.85A9.14,9.14,0,0,0,976.72,157.64Z"/><polygon class="cls-5" points="1025.79 160.59 1009.59 160.59 1009.59 190.05 992.65 190.05 992.65 204.78 1009.59 204.78 1009.59 260.75 1025.79 260.75 1025.79 204.78 1042.73 204.78 1042.73 190.05 1025.79 190.05 1025.79 160.59"/><path class="cls-5" d="M1102.07,197.92a26.53,26.53,0,0,0-7.29-5.88,29.15,29.15,0,0,0-14.36-3.46,31.49,31.49,0,0,0-17.31,4.93,35.32,35.32,0,0,0-12.22,13.26,41.12,41.12,0,0,0,0,37.41,34.72,34.72,0,0,0,12.22,13.18,31.86,31.86,0,0,0,17.31,4.86,29.56,29.56,0,0,0,14.43-3.46,26,26,0,0,0,7.22-5.76v7.75h16.2v-70.7h-16.2Zm-4.49,43q-5.52,6-14.51,6a19.56,19.56,0,0,1-10.38-2.73,19.12,19.12,0,0,1-7.07-7.59,25.56,25.56,0,0,1,0-22.38,19,19,0,0,1,7.07-7.59,19.56,19.56,0,0,1,10.38-2.73,19.85,19.85,0,0,1,10.53,2.73,18.61,18.61,0,0,1,7,7.59,24.08,24.08,0,0,1,2.5,11.19Q1103.1,234.83,1097.58,240.87Z"/><rect class="cls-5" x="1133.55" y="154.7" width="16.2" height="106.05"/></g></svg>